<svg xmlns="http://www.w3.org/2000/svg" width="386" height="103" fill="none"><path fill="#332E20" d="M51.46 102.66c28.178 0 51.02-22.842 51.02-51.02C102.48 23.463 79.637.62 51.46.62 23.282.62.44 23.463.44 51.64c0 28.178 22.842 51.02 51.02 51.02Z"/><path fill="#FF6B00" d="M13.19 51.64c0-21.13 17.13-38.27 38.27-38.27 21.13 0 38.27 17.13 38.27 38.27"/><path fill="#332E20" d="M149.65 38.14h-8.23v-8.82h8.23V17.74c2-1.06 9.06-4.23 21.64-5.41v16.99h13.64v8.82h-13.64v29.4c0 9.88 2.35 13.29 7.06 13.29 2.12 0 4.94-.94 7.76-2.35v8.23c-4.7 2.59-10.11 4.23-17.64 4.23-12.23 0-18.82-6-18.82-23.4v-29.4ZM248.91 71.64c-1.88 4.7-10.23 18.94-29.29 18.94-19.29 0-29.28-12.35-29.28-31.64S203.98 27.3 222.8 27.3c17.41 0 25.87 8.7 25.87 17.64 0 9.88-6 12.35-20.58 14.94l-7.88 1.41c-4 .71-6.35 2.59-6.35 6.59 0 4.47 4.59 8.59 12.58 8.59 8.11 0 13.05-2.23 19.88-6.94l2.59 2.11Zm-29.28-17.88c6.59-1.65 9.06-4.94 9.06-9.64 0-4.47-2.94-7.53-6.94-7.53-5.65 0-10 4.94-10 17.64v2.12c.47-.47.82-.82 3.53-1.53l4.35-1.06ZM253.96 28.95h25.99c.94 2.23 1.18 9.88 1.18 10.58 2.82-5.65 9.17-12.23 20.23-12.23 9.64 0 15.29 3.76 17.88 10.58 1.65 4.35 2.12 9.88 2.12 16.7v19.99c0 5.65 1.06 7.29 6.7 8.47v5.88h-24.58c-2.82 0-3.76-1.18-3.76-4V53.75c0-3.76 0-7.76-1.41-10.47-1.06-2-2.7-3.29-5.76-3.29-5.18 0-9.53 2.7-9.53 14.47v20.11c0 5.65 1.29 7.29 6.23 8.47v5.88h-35.28v-5.88c5.65-1.18 7.41-2.82 7.41-8.47V43.76c0-5.65-1.76-7.29-7.41-8.47v-6.34h-.01ZM351.58 66.11c-9.41-3.18-16.82-8.47-16.82-19.52 0-9.64 7.53-19.29 25.87-19.29 10.82 0 22.46 3.53 22.46 12.23 0 4.7-4.23 8-8.94 8-3.29-8-8.47-11.17-14.35-11.17-3.53 0-6.7 1.76-6.7 5.53 0 4.23 4.59 5.88 10.11 7.64l5.88 1.88c10 3.18 16.82 9.29 16.82 18.7 0 11.76-9.17 20.46-28.93 20.46-14.11 0-24.23-4.94-24.23-12.94 0-5.65 4.23-8.94 9.64-8.94 3.76 9.88 9.53 12.82 15.41 12.82 4.94 0 9.76-2 9.76-5.76 0-4.23-4.7-5.76-10.11-7.65l-5.87-1.99Z"/></svg>